<?xml version="1.0" encoding="utf-8" standalone="no"?>
<!DOCTYPE svg PUBLIC "-//W3C//DTD SVG 1.1//EN"
  "http://www.w3.org/Graphics/SVG/1.1/DTD/svg11.dtd">
<svg xmlns:xlink="http://www.w3.org/1999/xlink" width="371.52pt" height="280.512pt" viewBox="0 0 371.52 280.512" xmlns="http://www.w3.org/2000/svg" version="1.1">
 <metadata>
  <rdf:RDF xmlns:dc="http://purl.org/dc/elements/1.1/" xmlns:cc="http://creativecommons.org/ns#" xmlns:rdf="http://www.w3.org/1999/02/22-rdf-syntax-ns#">
   <cc:Work>
    <dc:type rdf:resource="http://purl.org/dc/dcmitype/StillImage"/>
    <dc:date>2025-04-18T12:37:09.030567</dc:date>
    <dc:format>image/svg+xml</dc:format>
    <dc:creator>
     <cc:Agent>
      <dc:title>Matplotlib v3.9.2, https://matplotlib.org/</dc:title>
     </cc:Agent>
    </dc:creator>
   </cc:Work>
  </rdf:RDF>
 </metadata>
 <defs>
  <style type="text/css">*{stroke-linejoin: round; stroke-linecap: butt}</style>
 </defs>
 <g id="figure_1">
  <g id="patch_1">
   <path d="M 0 280.512 
L 371.52 280.512 
L 371.52 0 
L 0 0 
L 0 280.512 
z
" style="fill: none"/>
  </g>
  <g id="axes_1">
   <g id="line2d_1">
    <path d="M 23.432727 18.475932 
L 43.009886 14.684176 
L 54.429895 12.688516 
L 64.218474 11.198711 
L 72.375624 10.15412 
L 80.532773 9.3165 
L 88.689922 8.706684 
L 96.847072 8.339837 
L 105.004221 8.225085 
L 113.16137 8.36528 
L 121.31852 8.756936 
L 129.475669 9.390312 
L 137.632819 10.249656 
L 145.789968 11.313594 
L 155.578547 12.822808 
L 166.998556 14.834999 
L 183.312855 17.990611 
L 206.152873 22.417566 
L 217.572883 24.396198 
L 227.361462 25.866224 
L 235.518611 26.891206 
L 243.675761 27.706893 
L 251.83291 28.292998 
L 259.990059 28.634943 
L 268.147209 28.724225 
L 276.304358 28.558622 
L 284.461508 28.142255 
L 292.618657 27.485476 
L 300.775806 26.604623 
L 308.932956 25.521602 
L 318.721535 23.993355 
L 330.141544 21.965135 
L 346.455843 18.799547 
L 348.087273 18.475932 
L 348.087273 18.475932 
" clip-path="url(#p092bbfde61)" style="fill: none; stroke: #1f77b4; stroke-width: 4; stroke-linecap: square"/>
   </g>
  </g>
  <g id="axes_2">
   <g id="line2d_2">
    <path d="M 23.432727 45.538169 
L 33.221307 41.746414 
L 39.747026 39.48653 
L 44.641316 38.03665 
L 49.535605 36.855185 
L 54.429895 35.984409 
L 57.692755 35.592377 
L 60.955614 35.358774 
L 64.218474 35.287322 
L 67.481334 35.379159 
L 70.744194 35.632821 
L 74.007053 36.044268 
L 78.901343 36.942287 
L 83.795633 38.147878 
L 88.689922 39.617904 
L 93.584212 41.299765 
L 100.109931 43.766928 
L 116.42423 50.069121 
L 121.31852 51.719675 
L 126.21281 53.149048 
L 131.107099 54.306092 
L 136.001389 55.149409 
L 139.264249 55.521928 
L 142.527108 55.735412 
L 145.789968 55.786462 
L 149.052828 55.674264 
L 152.315688 55.400606 
L 155.578547 54.969845 
L 160.472837 54.044808 
L 165.367127 52.815391 
L 170.261416 51.325585 
L 176.787136 49.027373 
L 184.944285 45.861784 
L 196.364294 41.447641 
L 201.258584 39.750754 
L 206.152873 38.260948 
L 211.047163 37.031531 
L 215.941453 36.106494 
L 219.204312 35.675733 
L 222.467172 35.402075 
L 225.730032 35.289877 
L 228.992892 35.340927 
L 232.255751 35.554411 
L 235.518611 35.92693 
L 240.412901 36.770247 
L 245.30719 37.927291 
L 250.20148 39.356664 
L 255.09577 41.007218 
L 261.621489 43.449064 
L 279.567218 50.35715 
L 284.461508 51.974754 
L 289.355797 53.362048 
L 294.250087 54.469392 
L 299.144376 55.257166 
L 302.407236 55.590385 
L 305.670096 55.763479 
L 308.932956 55.773692 
L 312.195815 55.62086 
L 315.458675 55.307418 
L 318.721535 54.838359 
L 323.615825 53.859982 
L 328.510114 52.583839 
L 333.404404 51.055593 
L 339.930123 48.721342 
L 348.087273 45.538169 
L 348.087273 45.538169 
" clip-path="url(#pec21b8635c)" style="fill: none; stroke: #ff7f0e; stroke-width: 4; stroke-linecap: square"/>
   </g>
  </g>
  <g id="axes_3">
   <g id="line2d_3">
    <path d="M 23.432727 72.600407 
L 29.958447 68.808651 
L 33.221307 67.082984 
L 36.484166 65.554737 
L 39.747026 64.278595 
L 43.009886 63.300218 
L 46.272746 62.654614 
L 49.535605 62.364884 
L 52.798465 62.441396 
L 56.061325 62.88141 
L 59.324185 63.669184 
L 62.587044 64.776529 
L 65.849904 66.163822 
L 69.112764 67.781426 
L 74.007053 70.511301 
L 85.427063 77.131358 
L 88.689922 78.781913 
L 91.952782 80.211285 
L 95.215642 81.36833 
L 98.478502 82.211646 
L 101.741361 82.711059 
L 105.004221 82.8487 
L 108.267081 82.619642 
L 111.529941 82.032083 
L 114.7928 81.107045 
L 118.05566 79.877628 
L 121.31852 78.387823 
L 124.58138 76.690936 
L 129.475669 73.891641 
L 137.632819 69.111204 
L 142.527108 66.548767 
L 145.789968 65.098887 
L 149.052828 63.917422 
L 152.315688 63.046646 
L 155.578547 62.517716 
L 158.841407 62.349559 
L 162.104267 62.548191 
L 165.367127 63.106505 
L 168.629986 64.004524 
L 171.892846 65.210115 
L 175.155706 66.680141 
L 178.418566 68.362002 
L 183.312855 71.148795 
L 193.101434 76.838812 
L 196.364294 78.520672 
L 199.627154 79.990698 
L 202.890014 81.196289 
L 206.152873 82.094308 
L 209.415733 82.652622 
L 212.678593 82.851254 
L 215.941453 82.683097 
L 219.204312 82.154168 
L 222.467172 81.283391 
L 225.730032 80.101926 
L 228.992892 78.652047 
L 232.255751 76.985631 
L 237.150041 74.212034 
L 246.93862 68.509878 
L 250.20148 66.812991 
L 253.46434 65.323185 
L 256.7272 64.093769 
L 259.990059 63.168731 
L 263.252919 62.581172 
L 266.515779 62.352114 
L 269.778639 62.489754 
L 273.041498 62.989168 
L 276.304358 63.832484 
L 279.567218 64.989529 
L 282.830078 66.418901 
L 286.092937 68.069456 
L 290.987227 70.829165 
L 300.775806 76.54204 
L 304.038666 78.253531 
L 307.301526 79.762745 
L 310.564386 81.015681 
L 313.827245 81.967506 
L 317.090105 82.584165 
L 320.352965 82.843591 
L 323.615825 82.736502 
L 326.878684 82.266729 
L 330.141544 81.451083 
L 333.404404 80.318747 
L 336.667264 78.910238 
L 339.930123 77.275955 
L 344.824413 74.530821 
L 348.087273 72.600407 
L 348.087273 72.600407 
" clip-path="url(#p9511948451)" style="fill: none; stroke: #2ca02c; stroke-width: 4; stroke-linecap: square"/>
   </g>
  </g>
  <g id="axes_4">
   <g id="line2d_4">
    <path d="M 23.432727 99.662644 
L 28.327017 95.870888 
L 31.589877 93.611004 
L 34.852736 91.735178 
L 36.484166 90.979659 
L 38.115596 90.362455 
L 39.747026 89.893396 
L 41.378456 89.579954 
L 43.009886 89.427122 
L 44.641316 89.437334 
L 46.272746 89.610429 
L 47.904175 89.943648 
L 49.535605 90.431683 
L 51.167035 91.066761 
L 52.798465 91.838766 
L 56.061325 93.742378 
L 59.324185 96.021711 
L 64.218474 99.824471 
L 69.112764 103.604278 
L 72.375624 105.84415 
L 75.638483 107.691723 
L 77.269913 108.430567 
L 78.901343 109.029744 
L 80.532773 109.47971 
L 82.164203 109.773296 
L 83.795633 109.905828 
L 85.427063 109.875193 
L 87.058492 109.681879 
L 88.689922 109.328966 
L 90.321352 108.822076 
L 91.952782 108.169282 
L 95.215642 106.469738 
L 98.478502 104.338193 
L 101.741361 101.909921 
L 109.898511 95.572115 
L 113.16137 93.352813 
L 116.42423 91.533953 
L 118.05566 90.811968 
L 119.68709 90.230968 
L 121.31852 89.800208 
L 122.94995 89.526549 
L 124.58138 89.414351 
L 126.21281 89.465401 
L 127.844239 89.678886 
L 129.475669 90.051405 
L 131.107099 90.577024 
L 132.738529 91.24737 
L 136.001389 92.977397 
L 139.264249 95.131693 
L 142.527108 97.573538 
L 150.684258 103.901049 
L 153.947117 106.099228 
L 157.209977 107.888921 
L 158.841407 108.593867 
L 160.472837 109.156545 
L 162.104267 109.567993 
L 163.735697 109.821655 
L 165.367127 109.913492 
L 166.998556 109.842039 
L 168.629986 109.608437 
L 170.261416 109.216405 
L 171.892846 108.672188 
L 173.524276 107.984456 
L 176.787136 106.224377 
L 180.049995 104.047868 
L 184.944285 100.30955 
L 189.838575 96.479472 
L 193.101434 94.145221 
L 196.364294 92.161124 
L 197.995724 91.340832 
L 199.627154 90.6531 
L 201.258584 90.108883 
L 202.890014 89.716851 
L 204.521444 89.483249 
L 206.152873 89.411797 
L 207.784303 89.503633 
L 209.415733 89.757295 
L 211.047163 90.168743 
L 212.678593 90.731421 
L 214.310023 91.436368 
L 217.572883 93.22606 
L 220.835742 95.424239 
L 225.730032 99.177323 
L 230.624322 102.999247 
L 233.887181 105.315768 
L 237.150041 107.273522 
L 238.781471 108.077918 
L 240.412901 108.748264 
L 242.044331 109.273883 
L 243.675761 109.646402 
L 245.30719 109.859887 
L 246.93862 109.910937 
L 248.57005 109.798739 
L 250.20148 109.52508 
L 251.83291 109.09432 
L 253.46434 108.51332 
L 255.09577 107.791335 
L 258.35863 105.972475 
L 261.621489 103.753173 
L 266.515779 99.986259 
L 271.410069 96.173441 
L 274.672928 93.875228 
L 277.935788 91.944304 
L 279.567218 91.156006 
L 281.198648 90.503212 
L 282.830078 89.996322 
L 284.461508 89.643409 
L 286.092937 89.450095 
L 287.724367 89.41946 
L 289.355797 89.551992 
L 290.987227 89.845579 
L 292.618657 90.295544 
L 294.250087 90.894721 
L 295.881517 91.633565 
L 299.144376 93.481138 
L 302.407236 95.721011 
L 307.301526 99.500817 
L 312.195815 103.303577 
L 315.458675 105.58291 
L 318.721535 107.486522 
L 320.352965 108.258527 
L 321.984395 108.893605 
L 323.615825 109.38164 
L 325.247254 109.714859 
L 326.878684 109.887954 
L 328.510114 109.898166 
L 330.141544 109.745334 
L 331.772974 109.431892 
L 333.404404 108.962833 
L 335.035834 108.345629 
L 336.667264 107.590111 
L 339.930123 105.714284 
L 343.192983 103.4544 
L 348.087273 99.662644 
L 348.087273 99.662644 
" clip-path="url(#p359e81e7f7)" style="fill: none; stroke: #d62728; stroke-width: 4; stroke-linecap: square"/>
   </g>
  </g>
  <g id="axes_5">
   <g id="line2d_5">
    <path d="M 23.432727 126.724881 
L 26.695587 123.541709 
L 29.958447 120.673241 
L 31.589877 119.44766 
L 33.221307 118.403069 
L 34.852736 117.56545 
L 36.484166 116.955633 
L 38.115596 116.588787 
L 39.747026 116.474034 
L 41.378456 116.614229 
L 43.009886 117.005885 
L 44.641316 117.639261 
L 46.272746 118.498605 
L 47.904175 119.562543 
L 49.535605 120.804616 
L 52.798465 123.695934 
L 60.955614 131.543862 
L 62.587044 132.906387 
L 64.218474 134.115173 
L 65.849904 135.140155 
L 67.481334 135.955842 
L 69.112764 136.541947 
L 70.744194 136.883892 
L 72.375624 136.973174 
L 74.007053 136.807572 
L 75.638483 136.391204 
L 77.269913 135.734426 
L 78.901343 134.853572 
L 80.532773 133.770551 
L 82.164203 132.512297 
L 85.427063 129.59885 
L 93.584212 121.763669 
L 95.215642 120.41505 
L 96.847072 119.223362 
L 98.478502 118.218243 
L 100.109931 117.424692 
L 101.741361 116.862445 
L 103.372791 116.545486 
L 105.004221 116.481697 
L 106.635651 116.672666 
L 108.267081 117.113642 
L 109.898511 117.793658 
L 111.529941 118.695802 
L 113.16137 119.797636 
L 116.42423 122.486477 
L 119.68709 125.594347 
L 124.58138 130.365814 
L 127.844239 133.161466 
L 129.475669 134.335759 
L 131.107099 135.320764 
L 132.738529 136.091981 
L 134.369959 136.63023 
L 136.001389 136.922124 
L 137.632819 136.960404 
L 139.264249 136.744117 
L 140.895678 136.278642 
L 142.527108 135.575557 
L 144.158538 134.652348 
L 145.789968 133.531975 
L 149.052828 130.81541 
L 153.947117 126.077975 
L 157.209977 122.933126 
L 160.472837 120.163148 
L 162.104267 119.006541 
L 163.735697 118.041897 
L 165.367127 117.293206 
L 166.998556 116.779089 
L 168.629986 116.512333 
L 170.261416 116.499572 
L 171.892846 116.741123 
L 173.524276 117.23098 
L 175.155706 117.956959 
L 176.787136 118.901003 
L 178.418566 120.039635 
L 181.681425 122.783248 
L 186.575715 127.533212 
L 189.838575 130.666515 
L 193.101434 133.410128 
L 194.732864 134.548759 
L 196.364294 135.492804 
L 197.995724 136.218783 
L 199.627154 136.708639 
L 201.258584 136.950191 
L 202.890014 136.93743 
L 204.521444 136.670674 
L 206.152873 136.156557 
L 207.784303 135.407866 
L 209.415733 134.443221 
L 211.047163 133.286615 
L 214.310023 130.516637 
L 219.204312 125.755328 
L 222.467172 122.634353 
L 225.730032 119.917787 
L 227.361462 118.797415 
L 228.992892 117.874206 
L 230.624322 117.171121 
L 232.255751 116.705646 
L 233.887181 116.489359 
L 235.518611 116.527639 
L 237.150041 116.819533 
L 238.781471 117.357782 
L 240.412901 118.128999 
L 242.044331 119.114003 
L 243.675761 120.288297 
L 246.93862 123.083948 
L 256.7272 132.378005 
L 258.35863 133.652126 
L 259.990059 134.75396 
L 261.621489 135.656104 
L 263.252919 136.336121 
L 264.884349 136.777097 
L 266.515779 136.968065 
L 268.147209 136.904277 
L 269.778639 136.587317 
L 271.410069 136.02507 
L 273.041498 135.23152 
L 274.672928 134.226401 
L 276.304358 133.034713 
L 279.567218 130.214084 
L 289.355797 120.937465 
L 290.987227 119.679212 
L 292.618657 118.596191 
L 294.250087 117.715337 
L 295.881517 117.058559 
L 297.512947 116.642191 
L 299.144376 116.476589 
L 300.775806 116.56587 
L 302.407236 116.907816 
L 304.038666 117.493921 
L 305.670096 118.309608 
L 307.301526 119.33459 
L 308.932956 120.543375 
L 312.195815 123.388278 
L 321.984395 132.645147 
L 323.615825 133.887219 
L 325.247254 134.951158 
L 326.878684 135.810502 
L 328.510114 136.443878 
L 330.141544 136.835534 
L 331.772974 136.975729 
L 333.404404 136.860976 
L 335.035834 136.49413 
L 336.667264 135.884313 
L 338.298693 135.046694 
L 339.930123 134.002103 
L 341.561553 132.776521 
L 344.824413 129.908053 
L 348.087273 126.724881 
L 348.087273 126.724881 
" clip-path="url(#p58b94b14b7)" style="fill: none; stroke: #9467bd; stroke-width: 4; stroke-linecap: square"/>
   </g>
  </g>
  <g id="axes_6">
   <g id="line2d_6">
    <path d="M 23.432727 143.536271 
L 31.589877 143.663753 
L 39.747026 144.043028 
L 47.904175 144.664663 
L 56.061325 145.513197 
L 64.218474 146.567528 
L 74.007053 148.067131 
L 85.427063 150.071181 
L 100.109931 152.89876 
L 126.21281 157.952484 
L 137.632819 159.904711 
L 147.421398 161.344427 
L 155.578547 162.339551 
L 163.735697 163.121983 
L 171.892846 163.672266 
L 180.049995 163.976711 
L 188.207145 164.027748 
L 196.364294 163.824108 
L 204.521444 163.370854 
L 212.678593 162.679261 
L 220.835742 161.766527 
L 230.624322 160.41166 
L 240.412901 158.81978 
L 251.83291 156.739399 
L 271.410069 152.89876 
L 287.724367 149.771426 
L 299.144376 147.801432 
L 308.932956 146.341388 
L 317.090105 145.326274 
L 325.247254 144.521605 
L 333.404404 143.947394 
L 341.561553 143.617921 
L 348.087273 143.536271 
L 348.087273 143.536271 
" clip-path="url(#p8b9a4bed74)" style="fill: none; stroke: #8c564b; stroke-width: 4; stroke-linecap: square"/>
   </g>
  </g>
  <g id="axes_7">
   <g id="line2d_7">
    <path d="M 23.432727 170.598508 
L 26.695587 170.680158 
L 29.958447 170.923806 
L 33.221307 171.32557 
L 38.115596 172.210023 
L 43.009886 173.403625 
L 47.904175 174.863669 
L 52.798465 176.537911 
L 59.324185 178.999051 
L 75.638483 185.30836 
L 80.532773 186.966949 
L 85.427063 188.406664 
L 90.321352 189.575992 
L 95.215642 190.433092 
L 98.478502 190.815391 
L 101.741361 191.038949 
L 105.004221 191.100203 
L 108.267081 190.99818 
L 111.529941 190.734503 
L 114.7928 190.313373 
L 119.68709 189.401788 
L 124.58138 188.184208 
L 129.475669 186.7042 
L 134.369959 185.014721 
L 142.527108 181.900104 
L 155.578547 176.833663 
L 160.472837 175.129368 
L 165.367127 173.629765 
L 170.261416 172.388511 
L 175.155706 171.450021 
L 178.418566 171.009631 
L 181.681425 170.72599 
L 184.944285 170.603618 
L 188.207145 170.644463 
L 191.470005 170.847875 
L 194.732864 171.210613 
L 199.627154 172.040147 
L 204.521444 173.184908 
L 209.415733 174.603937 
L 214.310023 176.246458 
L 220.835742 178.681668 
L 238.781471 185.597555 
L 243.675761 187.2236 
L 248.57005 188.621588 
L 253.46434 189.741498 
L 258.35863 190.543258 
L 261.621489 190.886345 
L 264.884349 191.069561 
L 268.147209 191.089986 
L 271.410069 190.947295 
L 274.672928 190.643762 
L 277.935788 190.184221 
L 282.830078 189.219059 
L 287.724367 187.954441 
L 292.618657 186.435616 
L 299.144376 184.110086 
L 308.932956 180.283846 
L 317.090105 177.133419 
L 323.615825 174.863669 
L 328.510114 173.403625 
L 333.404404 172.210023 
L 338.298693 171.32557 
L 341.561553 170.923806 
L 344.824413 170.680158 
L 348.087273 170.598508 
L 348.087273 170.598508 
" clip-path="url(#pc41637a17d)" style="fill: none; stroke: #e377c2; stroke-width: 4; stroke-linecap: square"/>
   </g>
  </g>
  <g id="axes_8">
   <g id="line2d_8">
    <path d="M 23.432727 197.660746 
L 26.695587 197.844152 
L 29.958447 198.387807 
L 33.221307 199.27226 
L 36.484166 200.465862 
L 39.747026 201.925906 
L 43.009886 203.600149 
L 47.904175 206.380517 
L 57.692755 212.076958 
L 60.955614 213.766438 
L 64.218474 215.246445 
L 67.481334 216.464025 
L 70.744194 217.37561 
L 74.007053 217.948583 
L 77.269913 218.162441 
L 80.532773 218.009532 
L 83.795633 217.495329 
L 87.058492 216.638229 
L 90.321352 215.468902 
L 93.584212 214.029186 
L 96.847072 212.370597 
L 101.741361 209.603772 
L 111.529941 203.895901 
L 114.7928 202.191606 
L 118.05566 200.692002 
L 121.31852 199.450749 
L 124.58138 198.512259 
L 127.844239 197.910112 
L 131.107099 197.665855 
L 134.369959 197.788228 
L 137.632819 198.272851 
L 140.895678 199.102384 
L 144.158538 200.247145 
L 147.421398 201.666174 
L 150.684258 203.308695 
L 155.578547 206.061289 
L 165.367127 211.779167 
L 168.629986 213.497853 
L 171.892846 215.016678 
L 175.155706 216.281296 
L 178.418566 217.246458 
L 181.681425 217.877628 
L 184.944285 218.152223 
L 188.207145 218.060417 
L 191.470005 217.605495 
L 194.732864 216.803735 
L 197.995724 215.683825 
L 201.258584 214.285837 
L 204.521444 212.659792 
L 209.415733 209.922117 
L 220.835742 203.308695 
L 224.098602 201.666174 
L 227.361462 200.247145 
L 230.624322 199.102384 
L 233.887181 198.272851 
L 237.150041 197.788228 
L 240.412901 197.665855 
L 243.675761 197.910112 
L 246.93862 198.512259 
L 250.20148 199.450749 
L 253.46434 200.692002 
L 256.7272 202.191606 
L 261.621489 204.805979 
L 276.304358 213.223702 
L 279.567218 214.779829 
L 282.830078 216.090225 
L 286.092937 217.108001 
L 289.355797 217.79674 
L 292.618657 218.131798 
L 295.881517 218.101186 
L 299.144376 217.705999 
L 302.407236 216.960378 
L 305.670096 215.891002 
L 308.932956 214.536135 
L 312.195815 212.944255 
L 317.090105 210.238459 
L 328.510114 203.600149 
L 331.772974 201.925906 
L 335.035834 200.465862 
L 338.298693 199.27226 
L 341.561553 198.387807 
L 344.824413 197.844152 
L 348.087273 197.660746 
L 348.087273 197.660746 
" clip-path="url(#p7fa98109c1)" style="fill: none; stroke: #7f7f7f; stroke-width: 4; stroke-linecap: square"/>
   </g>
  </g>
  <g id="axes_9">
   <g id="line2d_9">
    <path d="M 23.432727 224.722983 
L 25.064157 224.804632 
L 26.695587 225.04828 
L 28.327017 225.450045 
L 29.958447 226.003527 
L 31.589877 226.699909 
L 34.852736 228.474906 
L 38.115596 230.662386 
L 43.009886 234.40832 
L 47.904175 238.23456 
L 51.167035 240.560091 
L 54.429895 242.531139 
L 56.061325 243.343534 
L 57.692755 244.022615 
L 59.324185 244.557566 
L 60.955614 244.939865 
L 62.587044 245.163423 
L 64.218474 245.224678 
L 65.849904 245.122654 
L 67.481334 244.858977 
L 69.112764 244.437847 
L 70.744194 243.865973 
L 72.375624 243.152462 
L 75.638483 241.348074 
L 78.901343 239.139195 
L 83.795633 235.378962 
L 88.689922 231.561353 
L 91.952782 229.253843 
L 95.215642 227.309383 
L 96.847072 226.512986 
L 98.478502 225.851375 
L 100.109931 225.335088 
L 101.741361 224.972349 
L 103.372791 224.768938 
L 105.004221 224.728093 
L 106.635651 224.850465 
L 108.267081 225.134105 
L 109.898511 225.574496 
L 111.529941 226.164621 
L 113.16137 226.895081 
L 116.42423 228.728411 
L 119.68709 230.958138 
L 124.58138 234.731733 
L 129.475669 238.539759 
L 132.738529 240.828675 
L 136.001389 242.746062 
L 137.632819 243.526262 
L 139.264249 244.170238 
L 140.895678 244.667733 
L 142.527108 245.01082 
L 144.158538 245.194035 
L 145.789968 245.21446 
L 147.421398 245.07177 
L 149.052828 244.768236 
L 150.684258 244.308695 
L 152.315688 243.700467 
L 153.947117 242.953239 
L 157.209977 241.091423 
L 160.472837 238.841405 
L 165.367127 235.055388 
L 170.261416 231.257893 
L 173.524276 228.988143 
L 176.787136 227.098306 
L 178.418566 226.334497 
L 180.049995 225.708317 
L 181.681425 225.22974 
L 183.312855 224.906389 
L 184.944285 224.743416 
L 186.575715 224.743416 
L 188.207145 224.906389 
L 189.838575 225.22974 
L 191.470005 225.708317 
L 193.101434 226.334497 
L 194.732864 227.098306 
L 197.995724 228.988143 
L 201.258584 231.257893 
L 206.152873 235.055388 
L 211.047163 238.841405 
L 214.310023 241.091423 
L 217.572883 242.953239 
L 219.204312 243.700467 
L 220.835742 244.308695 
L 222.467172 244.768236 
L 224.098602 245.07177 
L 225.730032 245.21446 
L 227.361462 245.194035 
L 228.992892 245.01082 
L 230.624322 244.667733 
L 232.255751 244.170238 
L 233.887181 243.526262 
L 235.518611 242.746062 
L 238.781471 240.828675 
L 242.044331 238.539759 
L 246.93862 234.731733 
L 251.83291 230.958138 
L 255.09577 228.728411 
L 258.35863 226.895081 
L 259.990059 226.164621 
L 261.621489 225.574496 
L 263.252919 225.134105 
L 264.884349 224.850465 
L 266.515779 224.728093 
L 268.147209 224.768938 
L 269.778639 224.972349 
L 271.410069 225.335088 
L 273.041498 225.851375 
L 274.672928 226.512986 
L 277.935788 228.227879 
L 281.198648 230.370933 
L 284.461508 232.806143 
L 292.618657 239.139195 
L 295.881517 241.348074 
L 299.144376 243.152462 
L 300.775806 243.865973 
L 302.407236 244.437847 
L 304.038666 244.858977 
L 305.670096 245.122654 
L 307.301526 245.224678 
L 308.932956 245.163423 
L 310.564386 244.939865 
L 312.195815 244.557566 
L 313.827245 244.022615 
L 315.458675 243.343534 
L 318.721535 241.598372 
L 321.984395 239.432835 
L 326.878684 235.702133 
L 333.404404 230.662386 
L 336.667264 228.474906 
L 339.930123 226.699909 
L 341.561553 226.003527 
L 343.192983 225.450045 
L 344.824413 225.04828 
L 346.455843 224.804632 
L 348.087273 224.722983 
L 348.087273 224.722983 
" clip-path="url(#pde7784d1ad)" style="fill: none; stroke: #bcbd22; stroke-width: 4; stroke-linecap: square"/>
   </g>
  </g>
  <g id="axes_10">
   <g id="line2d_10">
    <path d="M 23.432727 251.78522 
L 25.064157 251.912702 
L 26.695587 252.291977 
L 28.327017 252.913612 
L 29.958447 253.762147 
L 31.589877 254.816477 
L 33.221307 256.050381 
L 36.484166 258.930453 
L 44.641316 266.784267 
L 46.272746 268.153661 
L 47.904175 269.37092 
L 49.535605 270.405771 
L 51.167035 271.232476 
L 52.798465 271.830474 
L 54.429895 272.184892 
L 56.061325 272.286915 
L 57.692755 272.134007 
L 59.324185 271.72997 
L 60.955614 271.084852 
L 62.587044 270.2147 
L 64.218474 269.141153 
L 65.849904 267.890912 
L 69.112764 264.988348 
L 77.269913 257.146305 
L 78.901343 255.790649 
L 80.532773 254.590337 
L 82.164203 253.575223 
L 83.795633 252.770554 
L 85.427063 252.196343 
L 87.058492 251.86687 
L 88.689922 251.79033 
L 90.321352 251.968626 
L 91.952782 252.397325 
L 93.584212 253.065764 
L 95.215642 253.957318 
L 96.847072 255.049814 
L 98.478502 256.31608 
L 101.741361 259.240412 
L 109.898511 267.06873 
L 111.529941 268.410312 
L 113.16137 269.593376 
L 114.7928 270.5885 
L 116.42423 271.370933 
L 118.05566 271.921215 
L 119.68709 272.22566 
L 121.31852 272.276698 
L 122.94995 272.073057 
L 124.58138 271.619804 
L 126.21281 270.92821 
L 127.844239 270.015476 
L 129.475669 268.904304 
L 132.738529 266.201433 
L 136.001389 263.086816 
L 140.895678 258.320131 
L 144.158538 255.537143 
L 145.789968 254.37162 
L 147.421398 253.396735 
L 149.052828 252.636733 
L 150.684258 252.110517 
L 152.315688 251.831175 
L 153.947117 251.805653 
L 155.578547 252.034587 
L 157.209977 252.512282 
L 158.841407 253.226858 
L 160.472837 254.160543 
L 162.104267 255.290116 
L 165.367127 258.020375 
L 170.261416 262.76437 
L 173.524276 265.903642 
L 176.787136 268.660609 
L 178.418566 269.8083 
L 180.049995 270.762704 
L 181.681425 271.500085 
L 183.312855 272.002103 
L 184.944285 272.256273 
L 186.575715 272.256273 
L 188.207145 272.002103 
L 189.838575 271.500085 
L 191.470005 270.762704 
L 193.101434 269.8083 
L 194.732864 268.660609 
L 197.995724 265.903642 
L 202.890014 261.147709 
L 206.152873 258.020375 
L 209.415733 255.290116 
L 211.047163 254.160543 
L 212.678593 253.226858 
L 214.310023 252.512282 
L 215.941453 252.034587 
L 217.572883 251.805653 
L 219.204312 251.831175 
L 220.835742 252.110517 
L 222.467172 252.636733 
L 224.098602 253.396735 
L 225.730032 254.37162 
L 227.361462 255.537143 
L 230.624322 258.320131 
L 235.518611 263.086816 
L 238.781471 266.201433 
L 242.044331 268.904304 
L 243.675761 270.015476 
L 245.30719 270.92821 
L 246.93862 271.619804 
L 248.57005 272.073057 
L 250.20148 272.276698 
L 251.83291 272.22566 
L 253.46434 271.921215 
L 255.09577 271.370933 
L 256.7272 270.5885 
L 258.35863 269.593376 
L 259.990059 268.410312 
L 263.252919 265.601997 
L 273.041498 256.31608 
L 274.672928 255.049814 
L 276.304358 253.957318 
L 277.935788 253.065764 
L 279.567218 252.397325 
L 281.198648 251.968626 
L 282.830078 251.79033 
L 284.461508 251.86687 
L 286.092937 252.196343 
L 287.724367 252.770554 
L 289.355797 253.575223 
L 290.987227 254.590337 
L 292.618657 255.790649 
L 295.881517 258.623591 
L 305.670096 267.890912 
L 307.301526 269.141153 
L 308.932956 270.2147 
L 310.564386 271.084852 
L 312.195815 271.72997 
L 313.827245 272.134007 
L 315.458675 272.286915 
L 317.090105 272.184892 
L 318.721535 271.830474 
L 320.352965 271.232476 
L 321.984395 270.405771 
L 323.615825 269.37092 
L 325.247254 268.153661 
L 328.510114 265.296797 
L 336.667264 257.43317 
L 338.298693 256.050381 
L 339.930123 254.816477 
L 341.561553 253.762147 
L 343.192983 252.913612 
L 344.824413 252.291977 
L 346.455843 251.912702 
L 348.087273 251.78522 
L 348.087273 251.78522 
" clip-path="url(#p532df6088b)" style="fill: none; stroke: #17becf; stroke-width: 4; stroke-linecap: square"/>
   </g>
  </g>
 </g>
 <defs>
  <clipPath id="p092bbfde61">
   <rect x="7.2" y="7.2" width="357.12" height="22.551864"/>
  </clipPath>
  <clipPath id="pec21b8635c">
   <rect x="7.2" y="34.262237" width="357.12" height="22.551864"/>
  </clipPath>
  <clipPath id="p9511948451">
   <rect x="7.2" y="61.324475" width="357.12" height="22.551864"/>
  </clipPath>
  <clipPath id="p359e81e7f7">
   <rect x="7.2" y="88.386712" width="357.12" height="22.551864"/>
  </clipPath>
  <clipPath id="p58b94b14b7">
   <rect x="7.2" y="115.448949" width="357.12" height="22.551864"/>
  </clipPath>
  <clipPath id="p8b9a4bed74">
   <rect x="7.2" y="142.511186" width="357.12" height="22.551864"/>
  </clipPath>
  <clipPath id="pc41637a17d">
   <rect x="7.2" y="169.573424" width="357.12" height="22.551864"/>
  </clipPath>
  <clipPath id="p7fa98109c1">
   <rect x="7.2" y="196.635661" width="357.12" height="22.551864"/>
  </clipPath>
  <clipPath id="pde7784d1ad">
   <rect x="7.2" y="223.697898" width="357.12" height="22.551864"/>
  </clipPath>
  <clipPath id="p532df6088b">
   <rect x="7.2" y="250.760136" width="357.12" height="22.551864"/>
  </clipPath>
 </defs>
</svg>
