<?xml version="1.0" encoding="utf-8" standalone="no"?>
<!DOCTYPE svg PUBLIC "-//W3C//DTD SVG 1.1//EN"
  "http://www.w3.org/Graphics/SVG/1.1/DTD/svg11.dtd">
<svg xmlns:xlink="http://www.w3.org/1999/xlink" width="371.52pt" height="280.512pt" viewBox="0 0 371.52 280.512" xmlns="http://www.w3.org/2000/svg" version="1.1">
 <metadata>
  <rdf:RDF xmlns:dc="http://purl.org/dc/elements/1.1/" xmlns:cc="http://creativecommons.org/ns#" xmlns:rdf="http://www.w3.org/1999/02/22-rdf-syntax-ns#">
   <cc:Work>
    <dc:type rdf:resource="http://purl.org/dc/dcmitype/StillImage"/>
    <dc:date>2025-04-18T12:37:10.899519</dc:date>
    <dc:format>image/svg+xml</dc:format>
    <dc:creator>
     <cc:Agent>
      <dc:title>Matplotlib v3.9.2, https://matplotlib.org/</dc:title>
     </cc:Agent>
    </dc:creator>
   </cc:Work>
  </rdf:RDF>
 </metadata>
 <defs>
  <style type="text/css">*{stroke-linejoin: round; stroke-linecap: butt}</style>
 </defs>
 <g id="figure_1">
  <g id="patch_1">
   <path d="M 0 280.512 
L 371.52 280.512 
L 371.52 0 
L 0 0 
L 0 280.512 
z
" style="fill: none"/>
  </g>
  <g id="axes_1">
   <g id="line2d_1">
    <path d="M 23.432727 8.225085 
L 26.695587 8.308782 
L 29.958447 8.557829 
L 33.221307 8.966175 
L 38.115596 9.85498 
L 43.009886 11.03255 
L 47.904175 12.43925 
L 54.429895 14.554154 
L 72.375624 20.559987 
L 78.901343 22.441158 
L 85.427063 24.044774 
L 91.952782 25.351554 
L 98.478502 26.371943 
L 105.004221 27.136748 
L 111.529941 27.687726 
L 119.68709 28.143749 
L 129.475669 28.454359 
L 144.158538 28.650991 
L 171.892846 28.722477 
L 348.087273 28.72678 
L 348.087273 28.72678 
" clip-path="url(#p62c2e2aa1c)" style="fill: none; stroke: #1f77b4; stroke-width: 4; stroke-linecap: square"/>
   </g>
  </g>
  <g id="axes_2">
   <g id="line2d_2">
    <path d="M 23.432727 43.353953 
L 33.221307 40.067037 
L 38.115596 38.592333 
L 43.009886 37.322398 
L 47.904175 36.320389 
L 51.167035 35.827551 
L 54.429895 35.489006 
L 57.692755 35.312932 
L 60.955614 35.303623 
L 64.218474 35.461306 
L 67.481334 35.782134 
L 72.375624 36.551299 
L 77.269913 37.628304 
L 82.164203 38.957724 
L 88.689922 41.009487 
L 111.529941 48.542407 
L 118.05566 50.297151 
L 124.58138 51.760993 
L 131.107099 52.929773 
L 137.632819 53.824764 
L 144.158538 54.483054 
L 152.315688 55.040226 
L 162.104267 55.429961 
L 175.155706 55.668841 
L 196.364294 55.773666 
L 279.567218 55.789017 
L 348.087273 55.789017 
L 348.087273 55.789017 
" clip-path="url(#p1c6000c6f4)" style="fill: none; stroke: #ff7f0e; stroke-width: 4; stroke-linecap: square"/>
   </g>
  </g>
  <g id="axes_3">
   <g id="line2d_3">
    <path d="M 23.432727 80.076511 
L 29.958447 78.931598 
L 36.484166 77.492544 
L 43.009886 75.761035 
L 49.535605 73.772085 
L 59.324185 70.478209 
L 69.112764 67.18634 
L 75.638483 65.253274 
L 80.532773 64.056497 
L 85.427063 63.144467 
L 88.689922 62.71894 
L 91.952782 62.451809 
L 95.215642 62.349559 
L 98.478502 62.414687 
L 101.741361 62.6456 
L 105.004221 63.036684 
L 109.898511 63.902095 
L 114.7928 65.06025 
L 119.68709 66.452297 
L 126.21281 68.555702 
L 144.158538 74.572336 
L 150.684258 76.46774 
L 157.209977 78.087677 
L 163.735697 79.410975 
L 170.261416 80.446663 
L 176.787136 81.224673 
L 183.312855 81.786382 
L 191.470005 82.252377 
L 201.258584 82.570664 
L 214.310023 82.760199 
L 238.781471 82.843498 
L 348.087273 82.851254 
L 348.087273 82.851254 
" clip-path="url(#p60ae7dbf6b)" style="fill: none; stroke: #2ca02c; stroke-width: 4; stroke-linecap: square"/>
   </g>
  </g>
  <g id="axes_4">
   <g id="line2d_4">
    <path d="M 23.432727 109.685713 
L 34.852736 109.353449 
L 43.009886 108.911998 
L 49.535605 108.376751 
L 56.061325 107.631364 
L 62.587044 106.633547 
L 69.112764 105.351231 
L 75.638483 103.771903 
L 82.164203 101.912046 
L 88.689922 99.824604 
L 109.898511 92.818123 
L 114.7928 91.530619 
L 119.68709 90.50671 
L 124.58138 89.799471 
L 127.844239 89.523317 
L 131.107099 89.411797 
L 134.369959 89.467633 
L 137.632819 89.689461 
L 140.895678 90.071884 
L 145.789968 90.925534 
L 150.684258 92.073901 
L 155.578547 93.458535 
L 162.104267 95.556076 
L 181.681425 102.076717 
L 188.207145 103.914681 
L 194.732864 105.469429 
L 201.258584 106.727225 
L 207.784303 107.702581 
L 214.310023 108.428762 
L 220.835742 108.948529 
L 228.992892 109.375714 
L 238.781471 109.664262 
L 253.46434 109.845001 
L 282.830078 109.910345 
L 348.087273 109.913492 
L 348.087273 109.913492 
" clip-path="url(#pf2d78dfdd8)" style="fill: none; stroke: #d62728; stroke-width: 4; stroke-linecap: square"/>
   </g>
  </g>
  <g id="axes_5">
   <g id="line2d_5">
    <path d="M 23.432727 136.968926 
L 52.798465 136.84763 
L 65.849904 136.595627 
L 75.638483 136.187278 
L 83.795633 135.606775 
L 90.321352 134.924169 
L 96.847072 134.000203 
L 103.372791 132.799075 
L 109.898511 131.30186 
L 116.42423 129.516113 
L 122.94995 127.484111 
L 134.369959 123.60265 
L 142.527108 120.908806 
L 147.421398 119.473485 
L 152.315688 118.257707 
L 157.209977 117.322616 
L 160.472837 116.879986 
L 163.735697 116.59482 
L 166.998556 116.474034 
L 170.261416 116.520575 
L 173.524276 116.733306 
L 176.787136 117.107049 
L 181.681425 117.948899 
L 186.575715 119.08743 
L 191.470005 120.464596 
L 197.995724 122.556206 
L 217.572883 129.083594 
L 224.098602 130.929065 
L 230.624322 132.492162 
L 237.150041 133.758236 
L 243.675761 134.741143 
L 250.20148 135.473761 
L 256.7272 135.998701 
L 264.884349 136.430642 
L 274.672928 136.722808 
L 289.355797 136.906137 
L 317.090105 136.971926 
L 348.087273 136.975729 
L 348.087273 136.975729 
" clip-path="url(#p1102bad2ae)" style="fill: none; stroke: #9467bd; stroke-width: 4; stroke-linecap: square"/>
   </g>
  </g>
  <g id="axes_6">
   <g id="line2d_6">
    <path d="M 23.432727 164.037966 
L 87.058492 163.928968 
L 100.109931 163.70858 
L 109.898511 163.345323 
L 118.05566 162.821609 
L 124.58138 162.19844 
L 131.107099 161.3456 
L 137.632819 160.224258 
L 144.158538 158.809835 
L 150.684258 157.101603 
L 157.209977 155.131534 
L 165.367127 152.411939 
L 178.418566 148.027542 
L 183.312855 146.585373 
L 188.207145 145.360314 
L 193.101434 144.413864 
L 196.364294 143.962765 
L 199.627154 143.668634 
L 202.890014 143.538601 
L 206.152873 143.575838 
L 209.415733 143.779435 
L 212.678593 144.144436 
L 217.572883 144.974345 
L 222.467172 146.102853 
L 227.361462 147.472333 
L 233.887181 149.557689 
L 253.46434 156.090936 
L 259.990059 157.943705 
L 266.515779 159.514996 
L 273.041498 160.789245 
L 279.567218 161.77964 
L 286.092937 162.51866 
L 292.618657 163.04876 
L 300.775806 163.485457 
L 310.564386 163.781251 
L 325.247254 163.967184 
L 348.087273 164.031164 
L 348.087273 164.031164 
" clip-path="url(#pb22845af1d)" style="fill: none; stroke: #8c564b; stroke-width: 4; stroke-linecap: square"/>
   </g>
  </g>
  <g id="axes_7">
   <g id="line2d_7">
    <path d="M 23.432727 191.100203 
L 122.94995 190.992899 
L 137.632819 190.730717 
L 147.421398 190.331759 
L 155.578547 189.763006 
L 162.104267 189.092624 
L 168.629986 188.1832 
L 175.155706 186.998275 
L 181.681425 185.517734 
L 188.207145 183.74742 
L 194.732864 181.727514 
L 204.521444 178.413941 
L 214.310023 175.147875 
L 219.204312 173.699086 
L 224.098602 172.464945 
L 228.992892 171.507293 
L 232.255751 171.0478 
L 235.518611 170.744754 
L 238.781471 170.605496 
L 242.044331 170.633424 
L 245.30719 170.827854 
L 248.57005 171.184052 
L 253.46434 172.001886 
L 258.35863 173.120188 
L 263.252919 174.481764 
L 269.778639 176.560547 
L 290.987227 183.587799 
L 297.512947 185.380967 
L 304.038666 186.886304 
L 310.564386 188.095391 
L 317.090105 189.026543 
L 323.615825 189.715219 
L 331.772974 190.30158 
L 339.930123 190.662649 
L 348.087273 190.872425 
L 348.087273 190.872425 
" clip-path="url(#p9c39d804ba)" style="fill: none; stroke: #e377c2; stroke-width: 4; stroke-linecap: square"/>
   </g>
  </g>
  <g id="axes_8">
   <g id="line2d_8">
    <path d="M 23.432727 218.162441 
L 158.841407 218.056878 
L 173.524276 217.798207 
L 183.312855 217.403886 
L 191.470005 216.840952 
L 197.995724 216.176642 
L 204.521444 215.274461 
L 211.047163 214.097632 
L 217.572883 212.625458 
L 224.098602 210.862937 
L 230.624322 208.849205 
L 240.412901 205.53945 
L 250.20148 202.268014 
L 255.09577 200.812658 
L 259.990059 199.569485 
L 264.884349 198.600675 
L 268.147209 198.13281 
L 271.410069 197.820865 
L 274.672928 197.672391 
L 277.935788 197.691009 
L 281.198648 197.876265 
L 284.461508 198.223645 
L 289.355797 199.029368 
L 294.250087 200.13742 
L 299.144376 201.491042 
L 305.670096 203.563183 
L 326.878684 210.596922 
L 333.404404 212.39753 
L 339.930123 213.911026 
L 346.455843 215.12812 
L 348.087273 215.387698 
L 348.087273 215.387698 
" clip-path="url(#p4331209204)" style="fill: none; stroke: #7f7f7f; stroke-width: 4; stroke-linecap: square"/>
   </g>
  </g>
  <g id="axes_9">
   <g id="line2d_9">
    <path d="M 23.432727 245.224678 
L 194.732864 245.120829 
L 209.415733 244.865622 
L 219.204312 244.475887 
L 227.361462 243.918715 
L 233.887181 243.260425 
L 240.412901 242.365434 
L 246.93862 241.196654 
L 253.46434 239.732812 
L 259.990059 237.978068 
L 266.515779 235.970519 
L 276.304358 232.664643 
L 286.092937 229.387943 
L 290.987227 227.926079 
L 295.881517 226.67393 
L 300.775806 225.694008 
L 304.038666 225.217795 
L 307.301526 224.896967 
L 310.564386 224.739284 
L 313.827245 224.748594 
L 317.090105 224.924667 
L 320.352965 225.263212 
L 325.247254 226.056787 
L 330.141544 227.15454 
L 335.035834 228.500151 
L 341.561553 230.565575 
L 348.087273 232.789614 
L 348.087273 232.789614 
" clip-path="url(#pe4f22aa06c)" style="fill: none; stroke: #bcbd22; stroke-width: 4; stroke-linecap: square"/>
   </g>
  </g>
  <g id="axes_10">
   <g id="line2d_10">
    <path d="M 23.432727 272.286915 
L 230.624322 272.184751 
L 245.30719 271.932963 
L 255.09577 271.547762 
L 263.252919 270.996295 
L 269.778639 270.343973 
L 276.304358 269.45612 
L 282.830078 268.295343 
L 289.355797 266.839798 
L 295.881517 265.092815 
L 302.407236 263.091458 
L 312.195815 259.789522 
L 321.984395 256.507662 
L 326.878684 255.03935 
L 331.772974 253.77828 
L 336.667264 252.787291 
L 339.930123 252.302754 
L 343.192983 251.973059 
L 346.455843 251.806177 
L 348.087273 251.78522 
L 348.087273 251.78522 
" clip-path="url(#p768156ec67)" style="fill: none; stroke: #17becf; stroke-width: 4; stroke-linecap: square"/>
   </g>
  </g>
 </g>
 <defs>
  <clipPath id="p62c2e2aa1c">
   <rect x="7.2" y="7.2" width="357.12" height="22.551864"/>
  </clipPath>
  <clipPath id="p1c6000c6f4">
   <rect x="7.2" y="34.262237" width="357.12" height="22.551864"/>
  </clipPath>
  <clipPath id="p60ae7dbf6b">
   <rect x="7.2" y="61.324475" width="357.12" height="22.551864"/>
  </clipPath>
  <clipPath id="pf2d78dfdd8">
   <rect x="7.2" y="88.386712" width="357.12" height="22.551864"/>
  </clipPath>
  <clipPath id="p1102bad2ae">
   <rect x="7.2" y="115.448949" width="357.12" height="22.551864"/>
  </clipPath>
  <clipPath id="pb22845af1d">
   <rect x="7.2" y="142.511186" width="357.12" height="22.551864"/>
  </clipPath>
  <clipPath id="p9c39d804ba">
   <rect x="7.2" y="169.573424" width="357.12" height="22.551864"/>
  </clipPath>
  <clipPath id="p4331209204">
   <rect x="7.2" y="196.635661" width="357.12" height="22.551864"/>
  </clipPath>
  <clipPath id="pe4f22aa06c">
   <rect x="7.2" y="223.697898" width="357.12" height="22.551864"/>
  </clipPath>
  <clipPath id="p768156ec67">
   <rect x="7.2" y="250.760136" width="357.12" height="22.551864"/>
  </clipPath>
 </defs>
</svg>
